<?xml version="1.0" encoding="utf-8"?> <!-- Generator: IcoMoon.io --> <!DOCTYPE svg PUBLIC "-//W3C//DTD SVG 1.1//EN" "http://www.w3.org/Graphics/SVG/1.1/DTD/svg11.dtd"> <svg width="512" height="512" viewBox="0 0 512 512" xmlns="http://www.w3.org/2000/svg" xmlns:xlink="http://www.w3.org/1999/xlink" fill="#ababab"><path d="M 128.00,432.00c0.00,8.00, 8.336,16.00, 16.688,16.00L 480.00,448.00 l0.00-32.00 L 144.688,416.00 C 136.336,416.00, 128.00,424.00, 128.00,432.00z M 32.00,64.00l0.00,384.00 c0.00,32.00, 32.00,64.00, 64.00,64.00l 384.00,0.00 l0.00-32.00 L 146.08,480.00 C 121.04,480.00, 96.00,456.00, 96.00,432.00s 25.04-48.00, 50.08-48.00L 480.00,384.00 L 480.00,0.00 L 96.00,0.00 C 64.00,0.00, 32.00,32.00, 32.00,64.00z" ></path></svg>