<?xml version="1.0" encoding="utf-8"?> <!-- Generator: IcoMoon.io --> <!DOCTYPE svg PUBLIC "-//W3C//DTD SVG 1.1//EN" "http://www.w3.org/Graphics/SVG/1.1/DTD/svg11.dtd"> <svg width="512" height="512" viewBox="0 0 512 512" xmlns="http://www.w3.org/2000/svg" xmlns:xlink="http://www.w3.org/1999/xlink" fill="#ababab"><path d="M 64.00,0.00C 32.00,0.00,0.00,32.00,0.00,64.00l0.00,384.00 c0.00,32.00, 32.00,64.00, 64.00,64.00l 384.00,0.00 c 32.00,0.00, 64.00-32.00, 64.00-64.00L 512.00,64.00 c0.00-32.00-32.00-64.00-64.00-64.00L 64.00,0.00 z M 416.00,416.00l 64.00,0.00 l0.00,64.00 l-64.00,0.00 L 416.00,416.00 z M 320.00,416.00l 64.00,0.00 l0.00,64.00 l-64.00,0.00 L 320.00,416.00 z M 128.00,416.00l 64.00,0.00 l0.00,64.00 L 128.00,480.00 L 128.00,416.00 z M 32.00,416.00l 64.00,0.00 l0.00,64.00 L 32.00,480.00 L 32.00,416.00 z M 416.00,320.00l 64.00,0.00 l0.00,64.00 l-64.00,0.00 L 416.00,320.00 z M 320.00,320.00l 64.00,0.00 l0.00,64.00 l-64.00,0.00 L 320.00,320.00 z M 224.00,320.00l 64.00,0.00 l0.00,64.00 l-64.00,0.00 L 224.00,320.00 z M 32.00,320.00l 64.00,0.00 l0.00,64.00 L 32.00,384.00 L 32.00,320.00 z M 96.00,192.00L 32.00,192.00 L 32.00,128.00 l 64.00,0.00 L 96.00,192.00 z M 192.00,192.00L 128.00,192.00 L 128.00,128.00 l 64.00,0.00 L 192.00,192.00 z M 288.00,192.00l-64.00,0.00 L 224.00,128.00 l 64.00,0.00 L 288.00,192.00 z M 384.00,192.00l-64.00,0.00 L 320.00,128.00 l 64.00,0.00 L 384.00,192.00 z M 416.00,224.00l 64.00,0.00 l0.00,64.00 l-64.00,0.00 L 416.00,224.00 z M 320.00,224.00l 64.00,0.00 l0.00,64.00 l-64.00,0.00 L 320.00,224.00 z M 128.00,224.00l 64.00,0.00 l0.00,64.00 L 128.00,288.00 L 128.00,224.00 z M 32.00,224.00 l 64.00,0.00 l0.00,64.00 L 32.00,288.00 L 32.00,224.00 z" ></path></svg>