<?xml version="1.0" encoding="utf-8"?> <!-- Generator: IcoMoon.io --> <!DOCTYPE svg PUBLIC "-//W3C//DTD SVG 1.1//EN" "http://www.w3.org/Graphics/SVG/1.1/DTD/svg11.dtd"> <svg width="512" height="512" viewBox="0 0 512 512" xmlns="http://www.w3.org/2000/svg" xmlns:xlink="http://www.w3.org/1999/xlink" fill="#ababab"><path d="M 128.00,256.00c0.00-70.688, 57.312-128.00, 128.00-128.00s 128.00,57.312, 128.00,128.00c0.00,70.688-57.312,128.00-128.00,128.00S 128.00,326.688, 128.00,256.00z M 96.00,96.00 c-32.00,0.00-64.00,32.00-64.00,64.00l0.00,192.00 c0.00,32.00, 32.00,64.00, 64.00,64.00l 320.00,0.00 c 32.00,0.00, 64.00-32.00, 64.00-64.00L 480.00,160.00 c0.00-32.00-32.00-64.00-64.00-64.00L 96.00,96.00 z M 192.00,256.00c0.00,35.344, 28.656,64.00, 64.00,64.00s 64.00-28.656, 64.00-64.00s-28.656-64.00-64.00-64.00 S 192.00,220.656, 192.00,256.00z" ></path></svg>