<?xml version="1.0" encoding="utf-8"?> <!-- Generator: IcoMoon.io --> <!DOCTYPE svg PUBLIC "-//W3C//DTD SVG 1.1//EN" "http://www.w3.org/Graphics/SVG/1.1/DTD/svg11.dtd"> <svg width="512" height="512" viewBox="0 0 512 512" xmlns="http://www.w3.org/2000/svg" xmlns:xlink="http://www.w3.org/1999/xlink" fill="#ababab"><path d="M 131.664,256.00c0.00-68.672, 55.664-124.336, 124.336-124.336s 124.336,55.664, 124.336,124.336 S 324.672,380.336, 256.00,380.336S 131.664,324.672, 131.664,256.00z M0.00,256.00c0.00,141.392, 114.608,256.00, 256.00,256.00s 256.00-114.608, 256.00-256.00S 397.392,0.00, 256.00,0.00S0.00,114.608,0.00,256.00z M 197.488,256.00c0.00,32.32, 26.208,58.512, 58.512,58.512S 314.512,288.32, 314.512,256.00S 288.32,197.488, 256.00,197.488S 197.488,223.68, 197.488,256.00z" ></path></svg>