<?xml version="1.0" encoding="utf-8"?> <!-- Generator: IcoMoon.io --> <!DOCTYPE svg PUBLIC "-//W3C//DTD SVG 1.1//EN" "http://www.w3.org/Graphics/SVG/1.1/DTD/svg11.dtd"> <svg width="512" height="512" viewBox="0 0 512 512" xmlns="http://www.w3.org/2000/svg" xmlns:xlink="http://www.w3.org/1999/xlink" fill="#ababab"><path d="M 64.00,256.00C 64.00,149.968, 149.968,64.00, 256.00,64.00c 106.032,0.00, 192.00,85.968, 192.00,192.00c0.00,106.032-85.968,192.00-192.00,192.00 C 149.968,448.00, 64.00,362.032, 64.00,256.00z M0.00,256.00c0.00,141.392, 114.608,256.00, 256.00,256.00s 256.00-114.608, 256.00-256.00S 397.392,0.00, 256.00,0.00S0.00,114.608,0.00,256.00z M 192.00,256.00c0.00-35.344, 28.656-64.00, 64.00-64.00 c 35.344,0.00, 64.00,28.656, 64.00,64.00s-28.656,64.00-64.00,64.00C 220.656,320.00, 192.00,291.344, 192.00,256.00z M 128.00,256.00c0.00,70.688, 57.312,128.00, 128.00,128.00c 70.688,0.00, 128.00-57.312, 128.00-128.00s-57.312-128.00-128.00-128.00 C 185.312,128.00, 128.00,185.312, 128.00,256.00z" ></path></svg>