<?xml version="1.0" encoding="utf-8"?> <!-- Generator: IcoMoon.io --> <!DOCTYPE svg PUBLIC "-//W3C//DTD SVG 1.1//EN" "http://www.w3.org/Graphics/SVG/1.1/DTD/svg11.dtd"> <svg width="512" height="512" viewBox="0 0 512 512" xmlns="http://www.w3.org/2000/svg" xmlns:xlink="http://www.w3.org/1999/xlink" fill="#ababab"><path d="M 96.00,192.00c0.00-35.344, 28.656-64.00, 64.00-64.00s 64.00,28.656, 64.00,64.00s-28.656,64.00-64.00,64.00S 96.00,227.344, 96.00,192.00z M 288.00,192.00 c0.00-35.344, 28.656-64.00, 64.00-64.00s 64.00,28.656, 64.00,64.00s-28.656,64.00-64.00,64.00S 288.00,227.344, 288.00,192.00z M 96.00,334.864c 13.504-26.624, 308.88-28.864, 320.00,0.00 C 438.464,393.168, 326.688,448.00, 256.00,448.00S 96.00,397.344, 96.00,334.864z M0.00,256.00c0.00,141.392, 114.608,256.00, 256.00,256.00s 256.00-114.608, 256.00-256.00c0.00-141.376-114.608-256.00-256.00-256.00 S0.00,114.624,0.00,256.00z" ></path></svg>