<?xml version="1.0" encoding="utf-8"?> <!-- Generator: IcoMoon.io --> <!DOCTYPE svg PUBLIC "-//W3C//DTD SVG 1.1//EN" "http://www.w3.org/Graphics/SVG/1.1/DTD/svg11.dtd"> <svg width="512" height="512" viewBox="0 0 512 512" xmlns="http://www.w3.org/2000/svg" xmlns:xlink="http://www.w3.org/1999/xlink" fill="#ababab"><path d="M0.00,352.00l0.00,64.00 c0.00,64.00, 64.00,96.00, 128.00,96.00l 256.00,0.00 c 64.00,0.00, 128.00-32.00, 128.00-96.00l0.00-64.00 L0.00,352.00 z M0.00,256.00c0.00,16.00, 16.00,32.00, 32.00,32.00l 448.00,0.00 c 16.00,0.00, 32.00-16.00, 32.00-32.00 s-16.00-32.00-32.00-32.00L 32.00,224.00 C 16.00,224.00,0.00,240.00,0.00,256.00z M0.00,160.00l 512.00,0.00 c0.00-96.00-96.00-160.00-192.00-160.00l-128.00,0.00 C 96.00,0.00,0.00,64.00,0.00,160.00z" ></path></svg>