<?xml version="1.0" encoding="utf-8"?> <!-- Generator: IcoMoon.io --> <!DOCTYPE svg PUBLIC "-//W3C//DTD SVG 1.1//EN" "http://www.w3.org/Graphics/SVG/1.1/DTD/svg11.dtd"> <svg width="512" height="512" viewBox="0 0 512 512" xmlns="http://www.w3.org/2000/svg" xmlns:xlink="http://www.w3.org/1999/xlink" fill="#ababab"><path d="M 372.352,32.00C 323.792,32.00, 281.008,88.544, 256.00,125.792C 230.992,88.544, 188.208,32.00, 139.648,32.00C 62.512,32.00,0.00,93.888,0.00,170.224 c0.00,43.984, 20.752,83.152, 53.088,108.464C 87.152,310.144, 243.36,454.976, 255.952,477.12l0.00,0.128 c0.00-0.016, 0.032-0.048, 0.048-0.064 c0.00,0.016, 0.032,0.048, 0.048,0.064L 256.048,477.12 c 12.576-22.16, 168.80-166.992, 202.864-198.432C 491.248,253.376, 512.00,214.192, 512.00,170.224 C 512.00,93.888, 449.488,32.00, 372.352,32.00z" ></path></svg>