<?xml version="1.0" encoding="utf-8"?> <!-- Generator: IcoMoon.io --> <!DOCTYPE svg PUBLIC "-//W3C//DTD SVG 1.1//EN" "http://www.w3.org/Graphics/SVG/1.1/DTD/svg11.dtd"> <svg width="512" height="512" viewBox="0 0 512 512" xmlns="http://www.w3.org/2000/svg" xmlns:xlink="http://www.w3.org/1999/xlink" fill="#ababab"><path d="M 128.00,64.00l 64.00,0.00 l0.00,64.00 L 128.00,128.00 L 128.00,64.00 z M 224.00,64.00l 64.00,0.00 l0.00,64.00 l-64.00,0.00 L 224.00,64.00 z M 320.00,64.00l 64.00,0.00 l0.00,64.00 l-64.00,0.00 L 320.00,64.00 z M 128.00,160.00l 64.00,0.00 l0.00,64.00 L 128.00,224.00 L 128.00,160.00 z M 224.00,160.00l 64.00,0.00 l0.00,64.00 l-64.00,0.00 L 224.00,160.00 z M 128.00,256.00l 64.00,0.00 l0.00,64.00 L 128.00,320.00 L 128.00,256.00 z M 320.00,160.00l 64.00,0.00 l0.00,64.00 l-64.00,0.00 L 320.00,160.00 z M 224.00,256.00l 64.00,0.00 l0.00,64.00 l-64.00,0.00 L 224.00,256.00 z M 320.00,256.00l 64.00,0.00 l0.00,64.00 l-64.00,0.00 L 320.00,256.00 z M 64.00,0.00l0.00,512.00 l 128.00,0.00 l0.00-128.00 l 128.00,0.00 l0.00,128.00 l 128.00,0.00 L 448.00,0.00 L 64.00,0.00 z" ></path></svg>