<?xml version="1.0" encoding="utf-8"?> <!-- Generator: IcoMoon.io --> <!DOCTYPE svg PUBLIC "-//W3C//DTD SVG 1.1//EN" "http://www.w3.org/Graphics/SVG/1.1/DTD/svg11.dtd"> <svg width="512" height="512" viewBox="0 0 512 512" xmlns="http://www.w3.org/2000/svg" xmlns:xlink="http://www.w3.org/1999/xlink" fill="#ababab"><path d="M 229.712,116.832c 13.136-27.776, 39.424-27.776, 52.544,0.00l 32.624,68.96l 72.928,11.056 c 29.376,4.448, 37.488,30.512, 16.24,52.144l-52.768,53.664l 12.448,75.776c 5.008,30.528-16.24,46.64-42.512,32.224L 256.00,374.88l-65.216,35.776 c-26.288,14.416-47.536-1.68-42.512-32.224l 12.448-75.776l-52.768-53.664c-21.264-21.632-13.136-47.696, 16.24-52.144l 72.928-11.056L 229.712,116.832z M 213.968,33.328l-52.192,110.32l-116.672,17.68c-47.008,7.136-60.00,48.848-25.984,83.44l 84.416,85.872l-19.92,121.248 c-8.032,48.848, 25.968,74.64, 68.016,51.568L 256.00,446.224l 104.352,57.232c 42.048,23.072, 76.048-2.72, 68.016-51.568l-19.92-121.248l 84.416-85.872 c 34.016-34.592, 21.008-76.304-25.984-83.44l-116.672-17.68l-52.192-110.32C 277.008-11.104, 234.992-11.104, 213.968,33.328z" ></path></svg>