<?xml version="1.0" encoding="utf-8"?> <!-- Generator: IcoMoon.io --> <!DOCTYPE svg PUBLIC "-//W3C//DTD SVG 1.1//EN" "http://www.w3.org/Graphics/SVG/1.1/DTD/svg11.dtd"> <svg width="512" height="512" viewBox="0 0 512 512" xmlns="http://www.w3.org/2000/svg" xmlns:xlink="http://www.w3.org/1999/xlink" fill="#ababab"><path d="M0.00,195.024L0.00,512.00 l 89.824,0.00 L 89.824,195.024 L0.00,195.024 z M 134.736,195.024L 134.736,512.00 l 332.352,0.00 C 489.552,512.00, 512.00,489.36, 512.00,466.72L 512.00,416.00 l-128.00,0.00 l0.00-32.00 l 128.00,0.00 l0.00-64.00 l-128.00,0.00 l0.00-32.00 l 128.00,0.00 l0.00-47.696 c0.00-22.64-22.448-45.28-44.912-45.28L 260.496,195.024 L 260.496,77.28 c0.00-22.64-22.464-45.28-44.928-45.28s-44.912,22.64-44.912,45.28l0.00,117.744 L 134.736,195.024 z" ></path></svg>