<?xml version="1.0" encoding="utf-8"?> <!-- Generator: IcoMoon.io --> <!DOCTYPE svg PUBLIC "-//W3C//DTD SVG 1.1//EN" "http://www.w3.org/Graphics/SVG/1.1/DTD/svg11.dtd"> <svg width="512" height="512" viewBox="0 0 512 512" xmlns="http://www.w3.org/2000/svg" xmlns:xlink="http://www.w3.org/1999/xlink" fill="#ababab"><path d="M 64.00,160.00c0.00-48.00, 48.00-96.00, 96.00-96.00l 192.00,0.00 c 48.00,0.00, 96.00,48.00, 96.00,96.00l0.00,192.00 c0.00,48.00-48.00,96.00-96.00,96.00L 160.00,448.00 c-48.00,0.00-96.00-48.00-96.00-96.00L 64.00,160.00 z M0.00,128.00l0.00,256.00 c0.00,64.00, 64.00,128.00, 128.00,128.00l 256.00,0.00 c 64.00,0.00, 128.00-64.00, 128.00-128.00L 512.00,128.00 c0.00-64.00-64.00-128.00-128.00-128.00L 128.00,0.00 C 64.00,0.00,0.00,64.00,0.00,128.00z" ></path></svg>